<svg xmlns="http://www.w3.org/2000/svg" width="385" height="104" viewBox="0 0 385 104">
        <title>Discourse</title>
        <g id="discourse-logo-large" fill="none" fill-rule="nonzero">
          <path fill="#FFF9AE" d="M52.37 19.74c-11.1380058.0065739-21.451097 5.8725864-27.1495582 15.4424743C19.5219805 44.7523623 19.2787009 56.6145192 24.58 66.41l-5.72 18.4 20.54-4.64c11.7619991 5.29926 25.5640682 2.9191757 34.8718647-6.0134445 9.3077965-8.9326201 12.2534008-22.6251484 7.4422692-34.5951021C76.9030023 27.5914997 65.3006488 19.7462906 52.4 19.74h-.03z"></path>
          <path fill="#00AEEF" d="M77.0874282 70.9138623C68.1087341 82.2404672 52.5895354 86.0314364 39.4 80.12l-20.54 4.7 20.91-2.47c13.8618885 8.120188 31.6101861 4.5474373 41.2505109-8.3037707C90.6608357 61.1950214 89.1246004 43.1559917 77.45 32.12c8.7654246 11.4924434 8.6161222 27.4672575-.3625718 38.7938623z"></path>
          <path fill="#00A94F" d="M75.3191226 64.9088434C67.572355 77.1106513 52.5344195 82.5013605 38.8 78l-19.94 6.82 20.54-4.65c14.6285181 6.6078894 31.8869319 1.1988304 40.1270438-12.5764482C87.7671557 53.8182732 84.370682 36.05385 71.63 26.29c9.9167741 10.5144718 11.4358902 26.4170355 3.6891226 38.6188434z"></path>
          <path fill="#F15D22" d="M26.47 67.11c-5.7247169-13.7992006-1.0069753-29.722128 11.3108878-38.1755635C50.0987509 20.4810011 66.6529755 21.8055203 77.47 32.11c-10.0181769-13.1470907-28.4736729-16.3561915-42.3417564-7.3625203C21.26016 33.7411508 16.6624984 51.9005882 24.58 66.41l-5.72 18.4 7.61-17.7z"></path>
          <path fill="#D0232B" d="M24.58 66.41c-7.1032817-13.1205259-4.0652056-29.4212778 7.2876929-39.1020065C43.2205913 17.6272648 59.7966078 17.2028861 71.63 26.29c-11.3513195-11.9524832-29.9818586-13.1756566-42.7984647-2.8098996C16.0149293 33.8458575 13.3153477 52.3203102 22.63 65.92l-3.76 18.9 5.71-18.41z"></path>
        </g>
      </svg>
